# xmcd CD database file
#
# Track frame offsets:
#	183
#	11233
#	21973
#	35988
#	50255
#	60590
#	71883
#	84640
#	95765
#	109053
#	120663
#	130835
#	143065
#	156693
#	169765
#
# Disc length: 2446 seconds
#
# Revision: 1
# Processed by: cddbd v1.4PL0 Copyright (c) Steve Scherf et al.
# Submitted via: CDex 1.50beta9
#
DISCID=dd098c0f
DTITLE=Lowell Fulson - Chicago Blues- Vol.3 cd2
DYEAR=1955
DGENRE=Blues
TTITLE0=Rock'em Dead 
TTITLE1=Comin'Home Someday
TTITLE2=Have You Changed Your Mind?
TTITLE3=Worry Worry
TTITLE4=K.C. Bound
TTITLE5=So Many Tears
TTITLE6=I'Glad You Reconsidered
TTITLE7=Blue Shadows
TTITLE8=Pay Day Blues
TTITLE9=Why Don't You Write Me?
TTITLE10=Shed no tears
TTITLE11=Trouble With The Blues
TTITLE12=Blue Soul
TTITLE13=Trouble, Trouble
TTITLE14=Check Yourself
EXTD=YEAR: 1955
EXTT0=
EXTT1=
EXTT2=
EXTT3=
EXTT4=
EXTT5=
EXTT6=
EXTT7=
EXTT8=
EXTT9=
EXTT10=
EXTT11=
EXTT12=
EXTT13=
EXTT14=
PLAYORDER=
